<svg fill="none" xmlns="http://www.w3.org/2000/svg" viewBox="0 0 25 24"><path fill-rule="evenodd" clip-rule="evenodd" d="M7.334 11a5 5 0 1 1 10 0c0 1.063-.073 2.11-.213 3.135a1 1 0 0 1-1.981-.27c.127-.937.194-1.893.194-2.865a3 3 0 1 0-6 0A14.916 14.916 0 0 1 7 19.041a1 1 0 1 1-1.72-1.021l.069-.111A12.916 12.916 0 0 0 7.334 11Zm8.443 5.038a1 1 0 0 1 .69 1.234 22.884 22.884 0 0 1-1.56 4.02 1 1 0 1 1-1.788-.896 20.882 20.882 0 0 0 1.423-3.668 1 1 0 0 1 1.235-.69Z" fill="#fff"/><path fill-rule="evenodd" clip-rule="evenodd" d="M7.833 3.205A9 9 0 0 1 21.333 11c0 2.567-.358 5.051-1.028 7.406a1 1 0 0 1-1.923-.548c.62-2.178.952-4.478.952-6.858a7 7 0 0 0-10.5-6.064 1 1 0 1 1-1.001-1.731Zm-1.928 2.93A1 1 0 0 1 6.27 7.5 6.963 6.963 0 0 0 5.334 11c0 1.72-.395 3.35-1.1 4.801a1 1 0 0 1-1.8-.874 8.96 8.96 0 0 0 .9-3.927c0-1.638.438-3.176 1.204-4.5a1 1 0 0 1 1.367-.366Z" fill="#fff"/><path fill-rule="evenodd" clip-rule="evenodd" d="M12.334 10a1 1 0 0 1 1 1c0 3.711-1.065 7.177-2.907 10.104a1 1 0 1 1-1.693-1.065 16.915 16.915 0 0 0 2.6-9.039 1 1 0 0 1 1-1Z" fill="#fff"/></svg>