<svg fill="none" xmlns="http://www.w3.org/2000/svg" viewBox="0 0 25 24"><path d="M16.666 2a1 1 0 1 0-2 0v2a1 1 0 1 0 2 0V2ZM16.666 14a1 1 0 1 0-2 0v2a1 1 0 1 0 2 0v-2ZM7.667 9a1 1 0 0 1 1-1h2a1 1 0 1 1 0 2h-2a1 1 0 0 1-1-1ZM20.666 8a1 1 0 1 0 0 2h2a1 1 0 1 0 0-2h-2ZM17.76 11.093a1 1 0 0 1 1.414 0l1.2 1.2a1 1 0 0 1-1.415 1.414l-1.2-1.2a1 1 0 0 1 0-1.414ZM20.374 5.707a1 1 0 0 0-1.415-1.414l-1.2 1.2a1 1 0 0 0 1.415 1.414l1.2-1.2ZM10.96 4.293a1 1 0 0 1 1.414 0l1.2 1.2a1 1 0 0 1-1.415 1.414l-1.2-1.2a1 1 0 0 1 0-1.414ZM13.374 12.707a1 1 0 0 0-1.415-1.414l-9 9a1 1 0 1 0 1.415 1.414l9-9Z" fill="#fff"/></svg>