<svg fill="none" xmlns="http://www.w3.org/2000/svg" viewBox="0 0 12 13"><path d="M2.75 1.5a.5.5 0 0 0-1 0v.75H1a.5.5 0 0 0 0 1h.75V4a.5.5 0 0 0 1 0v-.75h.75a.5.5 0 0 0 0-1h-.75V1.5ZM2.75 9a.5.5 0 0 0-1 0v.75H1a.5.5 0 0 0 0 1h.75v.75a.5.5 0 0 0 1 0v-.75h.75a.5.5 0 0 0 0-1h-.75V9ZM6.967 1.82a.5.5 0 0 0-.934 0l-.867 2.255c-.15.39-.197.503-.262.594a1 1 0 0 1-.235.235c-.091.065-.204.112-.594.262l-2.254.867a.5.5 0 0 0 0 .934l2.254.867c.39.15.503.197.594.262a1 1 0 0 1 .235.235c.065.091.112.204.262.594l.867 2.255a.5.5 0 0 0 .934 0l.867-2.255c.15-.39.197-.503.262-.594a1 1 0 0 1 .235-.235c.091-.065.204-.112.594-.262l2.255-.867a.5.5 0 0 0 0-.934l-2.255-.867c-.39-.15-.503-.197-.594-.262a1 1 0 0 1-.235-.235c-.065-.091-.112-.204-.262-.594L6.967 1.82Z" fill="#171717"/></svg>