<svg fill="none" xmlns="http://www.w3.org/2000/svg" viewBox="0 0 25 24"><path fill-rule="evenodd" clip-rule="evenodd" d="M16.666 4h-1.5a1 1 0 1 1 0-2h5a1 1 0 1 1 0 2h-1.5v2h.839c.527 0 .982 0 1.357.03.395.033.788.104 1.167.297a3 3 0 0 1 1.31 1.311c.193.378.265.772.297 1.167.03.375.03.83.03 1.357v3.676c0 .528 0 .982-.03 1.357-.032.395-.104.789-.296 1.167a3 3 0 0 1-1.311 1.311c-.379.193-.772.264-1.168.296-.374.031-.829.031-1.356.031h-.838v2h1.5a1 1 0 1 1 0 2h-5a1 1 0 1 1 0-2h1.5V4Z" fill="#fff"/><path d="M5.828 6h7.838a1 1 0 0 1 1 1v10a1 1 0 0 1-1 1H5.828c-.527 0-.982 0-1.357-.03-.395-.033-.788-.104-1.166-.297a3 3 0 0 1-1.312-1.311c-.192-.378-.264-.772-.296-1.167-.03-.375-.03-.83-.03-1.356V10.16c0-.527 0-.981.03-1.356.032-.395.104-.789.296-1.167a3 3 0 0 1 1.312-1.311c.378-.193.771-.264 1.166-.296C4.846 6 5.301 6 5.828 6Z" fill="#fff"/></svg>