<svg fill="none" xmlns="http://www.w3.org/2000/svg" viewBox="0 0 97 20"><g clip-path="url(#a)"><path fill-rule="evenodd" clip-rule="evenodd" d="M37.89 19.47V.073h2.815v8.365h9.698V.073h2.829V19.47h-2.829v-7l1.398-1.45H40.704v8.45H37.89Zm25.578.404c-1.446 0-2.717-.314-3.812-.943a6.705 6.705 0 0 1-2.546-2.654c-.602-1.14-.902-2.46-.902-3.96 0-1.589.296-2.967.889-4.135.601-1.167 1.436-2.07 2.505-2.707 1.069-.638 2.312-.957 3.731-.957 1.482 0 2.743.346 3.785 1.038 1.042.682 1.819 1.656 2.33 2.923.521 1.266.728 2.77.62 4.512H59.23c.1 1.22.445 2.194 1.032 2.923.71.87 1.733 1.306 3.071 1.306.88 0 1.639-.197 2.277-.592.646-.404 1.149-.98 1.508-1.724l2.761.875c-.565 1.302-1.423 2.312-2.572 3.03-1.15.71-2.43 1.065-3.84 1.065Zm2.815-11.651c.473.608.773 1.465.9 2.572h-7.89c.149-1.01.472-1.828.969-2.451.71-.89 1.77-1.334 3.179-1.334 1.275 0 2.222.404 2.842 1.213Zm6.807-3.3V19.47h2.842v-7.341c0-.575.058-1.118.175-1.63a4.58 4.58 0 0 1 .566-1.414c.27-.422.633-.782 1.091-1.078a3.477 3.477 0 0 1 1.59-.552 4.563 4.563 0 0 1 1.589.108v-2.64a5.349 5.349 0 0 0-1.374-.068 5.372 5.372 0 0 0-1.4.27c-.45.143-.858.35-1.227.62-.377.25-.709.574-.996.969-.128.171-.244.35-.35.537V4.923H73.09Zm16.472 14.95c-1.455 0-2.716-.327-3.785-.982a6.629 6.629 0 0 1-2.478-2.708c-.575-1.158-.862-2.492-.862-4 0-1.518.296-2.851.889-4 .592-1.16 1.423-2.057 2.492-2.695 1.068-.646 2.316-.97 3.744-.97 1.455 0 2.717.328 3.785.984a6.628 6.628 0 0 1 2.479 2.707c.583 1.15.875 2.474.875 3.974 0 1.517-.296 2.855-.889 4.014a6.628 6.628 0 0 1-2.478 2.707c-1.069.647-2.326.97-3.772.97Zm0-2.653c1.392 0 2.43-.467 3.112-1.4.691-.943 1.037-2.156 1.037-3.637 0-1.518-.35-2.73-1.05-3.637-.692-.916-1.725-1.374-3.099-1.374-.943 0-1.72.216-2.33.647-.61.422-1.064 1.01-1.36 1.764-.297.745-.445 1.612-.445 2.6 0 1.526.35 2.748 1.05 3.664.701.915 1.73 1.373 3.085 1.373ZM19.358.18H0l3.14 14.054h13.269L8.822 16.8l.596 2.666h19.358l-3.14-14.054h-5.109L19.358.18Z" fill="#fff"/></g><defs><clipPath id="a"><path fill="#fff" d="M0 0h96.757v20H0z"/></clipPath></defs></svg>