<svg fill="none" xmlns="http://www.w3.org/2000/svg" viewBox="0 0 40 40"><path fill-rule="evenodd" clip-rule="evenodd" d="m13.344 4.67.06.04 17.58 11.721c.51.34.981.654 1.343.946.379.305.824.728 1.08 1.346a3.334 3.334 0 0 1 0 2.554c-.256.618-.701 1.041-1.08 1.346-.362.292-.833.607-1.342.946l-17.641 11.76c-.622.415-1.181.788-1.656 1.045-.475.257-1.126.551-1.887.506a3.333 3.333 0 0 1-2.46-1.317c-.46-.607-.576-1.313-.625-1.85-.05-.538-.05-1.21-.05-1.957V8.244c0-.747 0-1.42.05-1.957.049-.537.166-1.243.625-1.85a3.333 3.333 0 0 1 2.46-1.317c.76-.045 1.412.249 1.887.506.475.257 1.034.63 1.656 1.045Z" fill="#000"/></svg>