<svg width="124" height="20" viewBox="0 0 124 20" fill="none" xmlns="http://www.w3.org/2000/svg">
<g clip-path="url(#clip0_116_1120)">
<path d="M6.8973 12.3626L4.96677 11.8956C4.16698 11.7033 3.44992 11.2637 3.44992 10.4945C3.44992 9.61535 4.22214 8.90107 5.3253 8.90107C6.29056 8.90107 7.22825 9.53294 7.22825 10.4395H9.7931C9.7931 7.7747 7.44888 6.62085 5.27014 6.62085C2.62255 6.62085 0.747181 8.32415 0.747181 10.4121C0.747181 12.2802 1.85034 13.5165 4.22214 14.1483L5.93204 14.5604C6.8973 14.7802 7.5592 15.2197 7.5592 16.0439C7.5592 17.0055 6.64909 17.7197 5.1874 17.7197C3.75329 17.7197 2.84319 16.8406 2.84319 15.8516H0.333496C0.388654 18.5164 2.81561 20 5.1874 20C7.80741 20 10.2068 18.5439 10.2068 16.0989C10.2068 14.7252 9.62762 13.0494 6.8973 12.3626Z" fill="white"/>
<path d="M18.5631 6.62085C14.9226 6.62085 11.9717 9.23074 11.9717 13.2692C11.9717 17.3077 14.8675 20 18.5631 20C20.99 20 23.2791 18.8461 24.4098 16.7307L22.2862 15.6593C21.5692 16.8406 20.1902 17.5 18.6734 17.5C16.6325 17.5 15.0881 16.4285 14.7296 14.3681H24.8787C24.9062 13.956 24.9338 13.5714 24.9338 13.2143C24.9614 9.23074 22.2035 6.62085 18.5631 6.62085ZM14.7847 12.2252C15.1708 10.1099 16.6325 9.09338 18.6182 9.09338C20.5763 9.09338 22.038 10.2472 22.3138 12.2252H14.7847Z" fill="white"/>
<path d="M42.7776 6.62085C41.4814 6.62085 39.4957 7.08788 38.4201 9.28569C37.6479 7.60986 36.1035 6.62085 34.2557 6.62085C32.5182 6.62085 30.7807 7.55492 30.2567 9.03843V6.95052H27.5815V19.6428H30.2567V12.8296C30.2567 10.2472 31.939 9.1758 33.6213 9.1758C35.1934 9.1758 36.2965 10.467 36.2965 12.5274V19.6428H38.9993V13.2967C38.9993 10.6318 40.1024 9.14832 42.1984 9.1758C43.9083 9.1758 45.0115 10.467 45.0115 12.5274V19.6428H47.7142V12.3901C47.6866 8.76371 45.9492 6.62085 42.7776 6.62085Z" fill="white"/>
<path d="M53.6439 6.95068H50.9688V19.643H53.6439V6.95068Z" fill="white"/>
<path d="M82.5739 8.84612C81.7466 7.41755 80.0091 6.62085 78.1613 6.62085C74.5485 6.62085 71.8457 9.50546 71.8457 13.2967C71.8457 17.2252 74.7139 20 78.051 20C80.0091 20 81.7742 18.9835 82.5739 17.5274V19.6703H85.2491V6.95052H82.5739V8.84612ZM78.5198 17.4725C76.2859 17.4725 74.5485 15.5769 74.5485 13.2967C74.5485 11.0439 76.2583 9.14832 78.4647 9.14832C80.5055 9.14832 82.5739 10.8516 82.5739 13.2967C82.5464 15.6868 80.6434 17.4725 78.5198 17.4725Z" fill="white"/>
<path d="M66.5508 2.22528V19.6429H69.2259V0H66.5508V2.22528Z" fill="white"/>
<path d="M92.2818 9.17578H95.0122V6.9505H92.2818V2.19775H89.6067V6.9505H87.29V9.17578H89.6067V19.6428H92.2818V17.2527V9.17578Z" fill="white"/>
<path d="M61.0072 2.44504H60.8417V0.0549316H58.332V6.89559H56.043V9.12087H58.332V19.6428H61.0072V9.12087H63.7375V6.89559H61.0072V2.44504Z" fill="white"/>
<path d="M61.0072 2.44504H63.5169V0.0549316H60.8417V2.44504H61.0072Z" fill="white"/>
<path d="M123.749 17.2527H92.2817V19.6428H123.749V17.2527Z" fill="white"/>
</g>
<defs>
<clipPath id="clip0_116_1120">
<rect width="123.333" height="20" fill="white" transform="translate(0.333496)"/>
</clipPath>
</defs>
</svg>
